<?xml version="1.0" encoding="utf-8"?>
<!-- Generator: Adobe Illustrator 22.1.0, SVG Export Plug-In . SVG Version: 6.00 Build 0)  -->
<svg version="1.1" id="Warstwa_1" xmlns="http://www.w3.org/2000/svg" xmlns:xlink="http://www.w3.org/1999/xlink" x="0px" y="0px"
	 viewBox="0 0 707.1 134" style="enable-background:new 0 0 707.1 134;" xml:space="preserve">
<style type="text/css">
	.st0{fill:#ED1B24;}
	.st1{fill:#939497;}
</style>
<path class="st0" d="M10,8.3c1.4,0,2.2,0,3.1,0c13.5,0,26.9,0,40.4,0c1.8,0,2.8,0.5,3.7,2.2c8.8,17.4,17.7,34.7,26.7,51.9
	c2.2,4.2,2.4,7.8,0.3,12.2c-8.1,17-15.8,34.1-23.5,51.2c-0.5,1.2-1.1,1.8-2.5,1.8c-15.4,0-30.7,0-46.1,0c-0.5,0-1-0.1-1.9-0.2
	c2-3.7,3.8-7.2,5.6-10.6c8.1-15.1,16.2-30.2,24.3-45.2c1.3-2.4,1.1-4.5-0.2-6.9c-9.4-17.5-18.6-35-27.9-52.6
	C11.2,11,10.8,9.9,10,8.3z"/>
<path d="M544.2,25.7c0,24.2,0,48,0,72.1c-5.9,0-11.7,0-17.8,0c0-14.7,0-29.4,0-44.5c-0.7,0.6-1.1,0.8-1.4,1.2
	c-5.6,6.4-11.2,12.9-16.7,19.3c-2.2,2.6-3.3,2.6-5.6,0c-5.2-6-10.3-12-15.5-17.9c-0.6-0.7-1.3-1.5-2.4-2.7c0,15.3,0,29.9,0,44.7
	c-6.2,0-12,0-18,0c0-24,0-47.9,0-72.1c5.1,0,10.1,0,15.1,0.1c0.5,0,1.1,0.7,1.5,1.2c6.9,8,13.9,16,20.8,23.9
	c0.4,0.4,0.8,0.9,1.4,1.5c4.1-4.8,8.1-9.4,12.2-14c3.3-3.8,6.7-7.7,10-11.5c0.4-0.5,1-1.1,1.6-1.1C534.2,25.6,539.1,25.7,544.2,25.7
	z"/>
<path d="M259.2,58.1c2.6,1.4,5.3,2.5,7.6,4.2c6.2,4.6,7.9,11.1,6.7,18.5c-1.2,7.7-5.7,12.8-13,15.3c-3.1,1.1-6.5,1.8-9.8,1.9
	c-12.3,0.2-24.6,0.1-37.1,0.1c0-24.1,0-48,0-72c0.1-0.1,0.2-0.2,0.2-0.2c12.7,0.1,25.4-1,38,0.7c5.5,0.8,10.1,3.6,13.5,8.1
	c5.2,7,3.7,16.5-3.4,21.6C261,56.9,260,57.5,259.2,58.1z M231.3,84.9c5.9-0.3,11.5-0.5,17-1.1c3.1-0.3,5.4-2.3,6.1-5.6
	c1.1-5.3-1.6-9.5-7.4-10.2c-4.8-0.6-9.7-0.3-14.6-0.3c-0.4,0-1.2,0.6-1.2,1C231.3,73.9,231.3,79.1,231.3,84.9z M231.4,54.4
	c1.2,0,2.1,0,3,0c2.7,0,5.3,0.1,8-0.1c4.4-0.4,7.4-3.5,7.5-7.5c0.1-3.9-2.6-7.1-7-7.6c-3.7-0.4-7.5-0.1-11.4-0.1
	C231.4,44.2,231.4,49.2,231.4,54.4z"/>
<path d="M329.3,69c0,4.8,0,9.6,0,14.3c0,4.8,0,9.6,0,14.5c-5.9,0-11.7,0-17.7,0c0-24,0-48,0-72.1c1.8,0,3.4,0,5.1,0
	c9,0,18-0.1,26.9,0c6.7,0.1,12.9,1.9,17.8,6.9c9.2,9.5,7.2,23.6-4.2,30.3c-0.6,0.4-1.3,0.7-2.1,1.2c7.7,5.3,10,14,13.8,21.7
	c1.9,3.9,3.6,7.8,5.6,12.1c-1.2,0-2,0-2.9,0c-4.9,0-9.9-0.1-14.8,0c-1.6,0-2.2-0.5-2.8-1.9c-2.9-6.4-5.9-12.8-8.9-19.2
	c-0.1-0.2-0.2-0.4-0.3-0.6C341.5,70.1,336.6,67.4,329.3,69z M329.5,39.4c0,5.2,0,10.5,0,15.6c4.3,0,8.4,0.3,12.5-0.1
	c4.2-0.5,6.7-3.9,6.6-8c-0.1-4.2-2.5-7.1-6.8-7.5C337.8,39.1,333.8,39.4,329.5,39.4z"/>
<path d="M692.8,43.9c-5.5-1.8-10.6-3.7-15.9-5.1c-4.4-1.2-8.9-1.5-13.3,0.1c-2.1,0.8-3.9,1.9-4.2,4.3c-0.3,2.5,1.1,4.4,3.2,5.3
	c4.9,2.3,9.9,4.2,14.9,6.4c4.7,2,9.3,4,13,7.8c12.6,13,4.8,27-5.4,32.4c-8.9,4.7-18.3,4.6-27.8,2.5c-4.5-1-8.9-3.1-13.3-4.7
	c-1.3-0.5-1.8-1.3-1.8-2.8c0.1-4.4,0-8.8,0-13.5c3.1,1.7,5.8,3.3,8.6,4.8c5.6,3,11.6,4.5,18,4.1c1.5-0.1,3-0.4,4.5-0.8
	c2.2-0.7,3.8-2.2,4.2-4.7c0.4-2.6-0.7-4.8-2.9-6c-2.8-1.6-5.9-2.8-8.9-4.1c-4.8-2.1-9.8-3.8-14.4-6.3c-11.7-6.5-12.8-19.5-8.2-27.5
	c4-7.1,10.9-9.9,18.5-11c10.1-1.5,19.8,0.6,29.2,4.3c1.3,0.5,1.9,1.2,1.8,2.7C692.7,36,692.8,40,692.8,43.9z"/>
<path class="st0" d="M65.7,8.3c1.4,0,2.3,0,3.2,0c26.9,0,53.8,0,80.8,0c3.1,0,3.1,0,3.1,3.1c0,8.7-0.1,17.3,0,26
	c0,2.1-0.5,2.9-2.8,2.9c-7.5-0.1-14.9-0.1-22.4,0c-1.7,0-2.6-0.4-2.4-2.3c0.1-1.4-0.1-2.9,0-4.3c0.3-2.2-0.7-2.7-2.7-2.7
	c-12.3,0.1-24.6,0-37,0c-2.3,0-4.6,0.1-6.8-0.1c-0.7,0-1.7-0.5-2-1C73.1,23,69.6,15.9,65.7,8.3z"/>
<path class="st0" d="M69.8,127.4c0.2-0.7,0.3-1.3,0.6-1.8c2.8-6.2,5.6-12.3,8.3-18.5c0.7-1.6,1.6-2.1,3.3-2.1
	c13.5,0.1,27.1,0,40.6,0.1c2,0,2.8-0.5,2.8-2.6c-0.1-6,0-6,5.9-6c6.5,0,12.9,0,19.4,0c1.6,0,2.1,0.5,2.1,2.1c-0.1,9-0.1,18,0,26.9
	c0,1.5-0.4,2.1-2.1,2.1c-26.4,0-52.8,0-79.2,0C71,127.6,70.5,127.5,69.8,127.4z"/>
<path class="st0" d="M89.9,82.8c1-2.2,1.9-4.2,2.8-6.2c0.7-1.5,1.4-2.9,2-4.3c1.2-2.6,1.1-5.1-0.2-7.7c-1.5-2.8-2.9-5.7-4.4-8.5
	c-0.3-0.6-0.6-1.3-1.1-2.3c1.1-0.1,1.8-0.2,2.5-0.2c19.4,0,38.8,0,58.2,0c2.2,0,3,0.4,3,2.9c-0.2,8.1-0.1,16.1,0,24.2
	c0,1.7-0.5,2.4-2.3,2.4c-19.4,0-38.8,0-58.2,0C91.6,83.1,91,83,89.9,82.8z"/>
<path d="M585.1,25.8c6.1,0,11.9,0,17.9,0c0,24,0,47.9,0,72c-5.9,0-11.8,0-17.9,0C585.1,73.8,585.1,49.9,585.1,25.8z"/>
<path d="M425.5,97.9c-6,0-11.7,0-17.7,0c0-24,0-47.9,0-72c5.9,0,11.7,0,17.7,0C425.5,49.8,425.5,73.7,425.5,97.9z"/>
<path d="M179.8,8.4c0.9,0,1.6,0,2.5,0c0,40,0,79.9,0,120c-0.8,0-1.6,0-2.5,0C179.8,88.5,179.8,48.6,179.8,8.4z"/>
<g>
	<g>
		<path class="st1" d="M506,121.5c0-2.6,0-5.3,0-7.9c0-2.6,0.5-2.9,3.2-2.1c0,5.3,0,10.7,0,16.1c-1.8,0.8-3.2,0.4-4.4-1.2
			c-1.9-2.6-3.8-5.1-5.8-7.6c-0.4-0.6-0.9-1.1-1.8-2.1c-0.3,1.3-0.5,2-0.6,2.7c-0.1,2-0.1,4.1,0,6.1c0.1,2.2-0.8,2.7-3.1,2
			c0-2.9,0-5.9,0-8.9c0-1.8-0.1-3.7,0-5.5c0.1-0.8,0.6-2.2,0.8-2.2c1,0.1,2.3,0.3,2.9,1c2.2,2.6,4.2,5.3,6.3,8.1
			c0.5,0.6,0.8,1.4,1.2,2.1C505.3,122,505.6,121.7,506,121.5z"/>
		<path class="st1" d="M341.3,117.4c0,2.9,0,5.7,0,8.6c0,1.3-0.2,2-1.7,2c-1.4,0-1.6-0.8-1.6-1.9c0.1-4.3,0.1-8.7,0.2-13
			c0-0.7,0.6-2,0.9-2c0.9,0,2.2,0.2,2.8,0.8c2.3,2.7,4.3,5.5,6.4,8.2c0.5,0.6,1.4,1,2,1.5c0.2-0.8,0.6-1.5,0.6-2.3
			c0.1-2,0.1-4.1,0-6.2c0-1.1,0.1-2.3,1.6-2.1c0.5,0.1,1,1.3,1,2c0.1,4.2,0.1,8.4,0,12.5c0,0.8-0.6,2.2-0.9,2.1
			c-1-0.1-2.3-0.3-2.9-1c-2.3-2.6-4.3-5.5-6.4-8.3c-0.4-0.5-0.5-1.3-0.8-1.9C342.2,116.8,341.8,117.1,341.3,117.4z"/>
		<path class="st1" d="M257.4,122c0.3-1.3,0.5-2,0.5-2.8c0.1-2.3-0.1-4.6,0.1-6.8c0-0.5,0.9-1,1.4-1.5c0.5,0.5,1.4,1,1.4,1.5
			c0.1,4.6,0.1,9.1,0,13.7c0,0.6-0.7,1.7-0.9,1.7c-1.1-0.2-2.5-0.4-3.2-1.1c-2.2-2.5-4.1-5.3-6.1-8c-0.5-0.6-1-1.2-2-2.4
			c-0.2,1.6-0.4,2.5-0.4,3.4c-0.1,2.2,0.1,4.4-0.1,6.6c0,0.5-0.9,1-1.4,1.5c-0.4-0.5-1.1-1-1.2-1.5c-0.1-4.3-0.1-8.5,0-12.8
			c0-0.9,0.5-1.7,0.8-2.6c1,0.5,2.4,0.7,3,1.4c2.1,2.5,4,5.2,6,7.7C255.9,120.7,256.5,121.2,257.4,122z"/>
		<path class="st1" d="M447.3,122c1.3,1.9,2.5,3.7,3.8,5.7c-2.1,0.5-3.6,0.3-4.7-1.6c-0.6-1.1-1.3-2.4-2.3-3.1
			c-0.8-0.6-2.2-0.8-3.2-0.8c-0.3,0-0.7,1.4-0.9,2.2c-0.1,0.3,0,0.8,0,1.1c0,1.1,0.3,2.4-1.6,2.3c-1.9,0-1.4-1.4-1.4-2.5
			c0-3.3,0-6.7,0-10c0-5.3-0.6-4.5,4.6-4.5c1.7,0,3.5,0,5.2,0.4c4,1,5.2,6.1,2.4,9.1C448.7,120.9,448.1,121.4,447.3,122z
			 M440.3,116.2c0,3.2,0,3.2,2.8,3.2c3.1,0,4.3-0.9,4.3-3.1c0-2.3-1.3-3-5-3.1C439.8,113.1,440.4,114.8,440.3,116.2z"/>
		<path class="st1" d="M374,119.3c0-2.2,0.1-4.4,0-6.6c0-1.4,0.5-1.9,1.9-1.9c2.8,0.1,5.6-0.1,8.4,0.1c0.6,0,1.2,0.7,1.8,1.1
			c-0.6,0.4-1.2,1.2-1.9,1.3c-1.7,0.2-3.3,0.1-5,0.1c-1.9-0.1-2.1,1.1-2.1,2.5c0,1.4,0.3,2.4,2,2.2c1.5-0.1,3.1-0.1,4.6,0
			c0.5,0.1,1,0.8,1.4,1.2c-0.5,0.4-0.9,1.1-1.5,1.2c-1.6,0.2-3.2,0.1-4.8,0.1c-1.5,0-1.8,0.8-1.8,2c0,1.2-0.1,2.5,1.8,2.5
			c2,0,4-0.1,5.9,0.1c0.6,0.1,1.1,0.8,1.7,1.3c-0.6,0.5-1.1,1.3-1.7,1.3c-3,0.1-6.1,0-9.1,0.1c-1.3,0-1.8-0.5-1.7-1.8
			C374,123.9,374,121.6,374,119.3C374,119.3,374,119.3,374,119.3z"/>
		<path class="st1" d="M405.5,119.5c0-2.2,0-4.4,0-6.6c0-1.3,0.4-2,1.8-2c2.7,0,5.5-0.1,8.2,0.1c0.6,0,1.1,0.8,1.7,1.2
			c-0.6,0.4-1.2,1.1-1.8,1.2c-1.7,0.2-3.3,0.1-5,0.1c-1.9,0-1.9,1.3-1.9,2.7c0,1.4,0.5,2.1,2,2.1c1.6-0.1,3.2-0.1,4.8,0.1
			c0.5,0.1,0.9,0.8,1.4,1.3c-0.4,0.4-0.9,1.1-1.3,1.1c-1.6,0.2-3.2,0.1-4.8,0.1c-2,0-2,1.5-2.1,2.9c-0.1,1.6,1,1.5,2.1,1.5
			c1.8,0,3.7,0,5.5,0.2c0.6,0.1,1,0.9,1.6,1.3c-0.5,0.4-1.1,1.3-1.6,1.3c-3,0.1-5.9,0.1-8.9,0c-0.6,0-1.5-1-1.5-1.6
			C405.4,124,405.5,121.7,405.5,119.5z"/>
		<path class="st1" d="M213.9,119.2c0-2.2,0-4.4,0-6.6c0-1.3,0.4-1.8,1.7-1.8c2.8,0.1,5.6-0.1,8.4,0.1c0.6,0,1.2,0.8,1.7,1.2
			c-0.6,0.4-1.1,1.1-1.8,1.2c-1.8,0.2-3.6,0.1-5.5,0.1c-1.7,0-1.9,1.1-1.9,2.4c0,1.4,0.3,2.4,2,2.3c1.6-0.1,3.2-0.1,4.8,0.1
			c0.5,0,0.9,0.7,1.4,1c-0.4,0.5-0.8,1.3-1.3,1.4c-1.7,0.2-3.3,0.1-5,0.1c-1.8-0.1-1.8,1.1-1.9,2.4c0,1.4,0.4,2.1,1.9,2
			c2-0.1,4,0,5.9,0.2c0.6,0.1,1.1,0.8,1.7,1.3c-0.6,0.4-1.1,1.2-1.7,1.3c-2.9,0.1-5.8,0-8.7,0.1c-1.4,0-1.9-0.5-1.9-1.9
			C214,123.8,214,121.5,213.9,119.2C213.9,119.2,213.9,119.2,213.9,119.2z"/>
		<path class="st1" d="M542,114.1c-1.7-0.3-3.3-0.8-4.9-0.8c-2.4-0.1-4.2,1.2-5,3.3c-1,2.5-0.9,5.1,1.1,7.2c1.5,1.6,4.6,2,6.6,1.2
			c1.7-0.7,1.4-2.2,1.3-3.5c0-1.4,0.4-2.2,1.9-2c0.3,0.1,0.7,0.3,0.9,0.5c0.9,1.3,0,5.5-1.3,6.4c-3.2,2.3-8.6,1.9-11.6-0.9
			c-3-2.8-3.7-7.3-1.6-10.6c2.5-4,6.9-5.6,11-4C542.8,111.9,543.1,112.5,542,114.1z"/>
		<path class="st1" d="M295.7,119.7c0,1.7,0.2,3.3-0.1,4.8c-0.1,0.8-0.9,1.8-1.6,2.2c-3,2-8.4,1.5-11.3-1.1
			c-2.7-2.4-3.5-6.7-1.8-10.3c2.3-5,8.5-6.3,13.8-2.8c-0.5,1.5-1.2,1.8-2.8,1.2c-4.9-1.9-8.8,0.9-8.6,6.1c0.1,3.1,2.1,5.2,5.2,5.5
			c3.2,0.3,4-0.5,4.1-3.7C292.7,119.5,292.7,119.4,295.7,119.7z"/>
		<path class="st1" d="M318.1,119.4c0,2.3,0.1,4.6-0.1,6.8c0,0.6-0.8,1.5-1.4,1.7c-1.3,0.4-1.6-0.6-1.6-1.8c0-4.4,0-8.8,0-13.2
			c0-1-0.1-2,1.4-2c1.6,0,1.6,1,1.6,2.1C318.1,115.1,318.1,117.2,318.1,119.4z"/>
		<path class="st1" d="M473.4,119.4c0,2.3,0.1,4.6-0.1,6.8c0,0.6-0.8,1.1-1.2,1.7c-0.5-0.6-1.5-1.1-1.6-1.7c-0.1-4.5,0-9,0-13.5
			c0-1.1,0.3-2.2,1.6-1.8c0.5,0.1,1.1,1.3,1.1,2C473.5,115.1,473.4,117.2,473.4,119.4C473.4,119.4,473.4,119.4,473.4,119.4z"/>
	</g>
</g>
</svg>
