<?xml version="1.0" encoding="utf-8"?>
<!-- Generator: Adobe Illustrator 22.1.0, SVG Export Plug-In . SVG Version: 6.00 Build 0)  -->
<svg version="1.1" id="Warstwa_1" xmlns="http://www.w3.org/2000/svg" xmlns:xlink="http://www.w3.org/1999/xlink" x="0px" y="0px"
	 viewBox="0 0 173.2 141.8" style="enable-background:new 0 0 173.2 141.8;" xml:space="preserve">
<style type="text/css">
	.st0{fill:#ED1B24;}
</style>
<g>
	<path class="st0" d="M31.5,141.5c-7.9,0-15.9,0-23.8,0c-1,0-2,0-2.9-0.1c-2.1-0.1-2.6-1-1.6-2.9c4.4-8.2,8.6-16.4,13-24.6
		c7.1-13.1,14.2-26.2,21.3-39.3c1.2-2.1,1.1-4.2-0.1-6.4c-5.9-11-11.9-22-17.7-33C14,24.8,8.5,14.2,2.9,3.6C2.1,2,2.4,1,4.3,0.9
		c1-0.1,2-0.1,2.9-0.1c15.1,0,30.2,0,45.2,0c3,0,4.6,0.8,6,3.8c3.7,8.2,8.3,16,12.2,24.1C75.8,38.8,81,49,86.3,59.1
		c1.3,2.4,2.4,4.8,3.8,7.1c2.2,3.7,2.1,7.5,0.3,11.3c-8.4,17.2-16,34.9-24.1,52.2c-1.2,2.7-2.7,5.3-3.5,8.1c-0.9,3-2.8,3.8-5.6,3.8
		c-7.3,0-14.6,0-22,0C33.9,141.5,32.7,141.5,31.5,141.5z"/>
	<path class="st0" d="M118.9,0.7c15.7,0,31.4,0,47.1,0c3.8,0,3.9,0.1,3.9,3.9c0,10.3-0.1,20.5,0.1,30.8c0,2.7-0.9,3.6-3.6,3.5
		c-8.6-0.1-17.1,0-25.7-0.1c-3.3,0-3.6-0.3-3.6-3.7c-0.1-8,1-7-7.2-7c-15.3,0-30.5-0.1-45.8,0c-2.4,0-3.7-0.8-4.8-2.9
		c-3.4-6.9-6.9-13.7-10.4-20.5c-1.8-3.4-1.4-4,2.7-4C87.4,0.7,103.1,0.7,118.9,0.7z"/>
	<path class="st0" d="M121.2,141.5c-14.7,0-29.4,0-44.2,0c-5.4,0-5.5-0.2-3.3-5.1c2.9-6.4,6-12.8,8.8-19.2c1-2.2,2.3-3,4.7-3
		c15.3,0.1,30.5,0,45.8,0c4.2,0,4.2,0,4.2-4.1c0-5.7,0-5.7,5.7-5.7c8,0,16.1,0.1,24.1,0c2.3,0,3.1,0.8,3.1,3.1
		c-0.1,10.2,0,20.3,0,30.5c0,3.2-0.3,3.5-3.6,3.5C151.3,141.5,136.2,141.5,121.2,141.5z"/>
	<path class="st0" d="M132,54.1c11.5,0,23,0.1,34.5,0c2.5,0,3.5,0.8,3.4,3.4c-0.1,9.5-0.1,18.9,0,28.4c0,2.6-0.9,3.4-3.4,3.4
		c-22.5-0.1-45,0-67.5,0c-3.3,0-3.7-0.6-2.3-3.6c1.6-3.4,3.5-6.6,4.8-10.2c1.1-3,0.8-5.7-0.7-8.5c-1.9-3.3-3.5-6.8-5.3-10.2
		c-1-2-0.7-2.7,1.6-2.7C108.8,54.1,120.4,54.1,132,54.1C132,54.1,132,54.1,132,54.1z"/>
</g>
</svg>
